<?xml version="1.0" encoding="UTF-8"?> <svg xmlns="http://www.w3.org/2000/svg" width="178" height="34" viewBox="0 0 178 34" fill="none"><path d="M124.544 14.362V11.0039H117.846V8.83161H124.06V5.49248H117.846V3.37707H124.563V0.0189723H114.194V14.362H124.544ZM102.688 3.4909H105.021C106.074 3.4909 106.862 3.84189 107.431 4.56284C107.99 5.28379 108.284 6.15651 108.284 7.18102C108.284 8.20552 107.99 9.10671 107.431 9.81817C106.871 10.5391 106.055 10.8901 105.021 10.8901H102.688V3.4909ZM104.841 14.362C107.089 14.362 108.863 13.717 110.125 12.4363C111.405 11.1557 112.05 9.41026 112.05 7.1905C112.05 4.97074 111.405 3.20632 110.144 1.92569C108.882 0.645059 107.137 0 104.898 0H99.0544V14.3431H104.841V14.362ZM92.6513 7.79762L86.0109 0.00948614H83.4117V14.3525H86.9691V6.66877L93.4955 14.3525H96.237V0.0189723H92.6607V7.8071L92.6513 7.79762ZM80.9643 14.362V11.0039H74.2671V8.83161H80.4805V5.49248H74.2671V3.37707H80.9833V0.0189723H70.6149V14.362H80.9643ZM68.1675 14.362V11.0039H61.4703V8.83161H67.6837V5.49248H61.4703V3.37707H68.1865V0.0189723H57.8181V14.362H68.1675ZM50.1533 3.33913C52.1738 3.18735 52.3446 6.56442 50.0205 6.4411H47.8482V3.33913H50.1628H50.1533ZM55.9398 14.362L52.8379 9.0403C54.6023 8.20552 55.4561 6.5739 55.4561 4.77153C55.4561 3.39604 55.0102 2.26719 54.1185 1.37549C53.2268 0.464821 51.9272 0.0189723 50.2007 0.0189723H44.2244V14.362H47.8576V9.60947H49.2711L51.7944 14.362H55.9493H55.9398ZM34.9565 6.59288V3.32964H37.0339C38.0395 3.32964 38.7035 4.03161 38.7035 4.96126C38.7035 5.8909 38.1059 6.59288 36.9581 6.59288H34.9565ZM31.3233 0.00948614V14.3525H34.9565V9.84663H36.7778C38.7035 9.84663 40.1359 9.40078 41.0466 8.49011C41.9573 7.57944 42.4221 6.41264 42.4221 4.9992C42.4221 3.58577 41.9762 2.4 41.0845 1.4419C40.2118 0.49328 38.8553 0.00948614 37.0245 0.00948614H31.3138H31.3233ZM16.3541 14.3525V7.45612L19.9494 12.4838H21.3059L24.9012 7.45612V14.3525H28.4964V0.0189723H25.8023L20.6608 7.3992L15.5004 0.0189723H12.8253V14.362H16.3826L16.3541 14.3525ZM10.3589 14.3525V10.9945H3.65217V8.82212H9.8656V5.483H3.65217V3.36758H10.3684V0.00948614H0V14.3525H10.3494H10.3589Z" fill="white"></path><path fill-rule="evenodd" clip-rule="evenodd" d="M3.54782 29.9193V27.064H6.34624C7.37074 27.064 7.93991 27.7091 7.93991 28.4964C7.93991 29.2838 7.41817 29.9099 6.27035 29.9099H3.54782V29.9193ZM6.03319 21.7423C6.86797 21.7423 7.35177 22.302 7.35177 22.947C7.35177 23.63 6.88695 24.1707 5.88141 24.1707H3.54782V21.7423H6.03319ZM8.94544 25.1383C10.1122 24.7304 10.9091 23.4877 10.9091 22.2261C10.9091 21.2775 10.5391 20.4427 9.7992 19.7407C9.05928 19.0197 8.03477 18.6688 6.7162 18.6688H0V33.0118H7.04821C8.4237 33.0118 9.53358 32.6039 10.3873 31.8071C11.2411 31.0102 11.668 30.0047 11.668 28.781C11.668 26.9976 10.7194 25.5747 8.94544 25.1288V25.1383Z" fill="#FFD600"></path><path fill-rule="evenodd" clip-rule="evenodd" d="M19.6647 21.9984C21.6852 21.8466 21.856 25.2237 19.5319 25.1004H17.3596V21.9984H19.6742H19.6647ZM25.4512 33.0213L22.3493 27.6996C24.1137 26.8648 24.9674 25.2332 24.9674 23.4308C24.9674 22.0553 24.5216 20.9265 23.6299 20.0348C22.7382 19.1241 21.4386 18.6783 19.7121 18.6783H13.7358V33.0213H17.369V28.2688H18.7825L21.3058 33.0213H25.4607H25.4512Z" fill="#FFD600"></path><path fill-rule="evenodd" clip-rule="evenodd" d="M39.6806 33.0213L34.577 18.6783H31.1999L25.9541 33.0213H29.7011L32.8885 23.0039L35.9525 33.0213H39.6806Z" fill="#FFD600"></path><path fill-rule="evenodd" clip-rule="evenodd" d="M52.1456 33.0213V29.7201H45.5622L51.9369 21.5336V18.6783H40.7337V21.9794H47.042L40.4966 30.2893V33.0213H52.1456Z" fill="#FFD600"></path><path d="M57.97 18.6783H54.3179V33.0213H57.97V18.6783Z" fill="#FFD600"></path><path fill-rule="evenodd" clip-rule="evenodd" d="M71.4212 33.0213V29.5684H64.4583V18.6783H60.8062V33.0213H71.4212Z" fill="#FFD600"></path><path fill-rule="evenodd" clip-rule="evenodd" d="M176.794 12.7968L158.779 7.99684L156.436 7.37075L132.825 1.07194C132.427 0.967597 132 1.05297 131.678 1.29961C131.355 1.55574 131.156 1.94467 131.156 2.35257V3.50989L143.45 6.78261L145.423 7.30435L160.572 11.3454C161.056 11.4783 161.398 11.9146 161.398 12.4269C161.398 12.9391 161.056 13.3755 160.572 13.5083L145.423 17.5494L143.45 18.0711L131.156 21.3439V25.8023C131.156 26.2103 131.345 26.5992 131.678 26.8458C131.915 27.0261 132.199 27.1209 132.484 27.1209C132.598 27.1209 132.712 27.102 132.825 27.0735L156.436 20.7747L158.779 20.1486L176.794 15.3486C177.372 15.1968 177.78 14.6656 177.78 14.068C177.78 13.4703 177.372 12.9391 176.794 12.7873" fill="#00844B"></path><path fill-rule="evenodd" clip-rule="evenodd" d="M131.156 6.81107V21.3439L134.21 20.528L136.449 19.9304L153.685 15.3391C154.236 15.1873 154.625 14.6846 154.625 14.1154V14.0775V14.0395C154.625 13.4609 154.236 12.9581 153.685 12.8158L136.449 8.2245L134.21 7.62688L131.156 6.81107Z" fill="#FFD600"></path><path d="M138.251 13.4229L131.146 11.5257V16.6102L138.251 14.713C138.536 14.6371 138.735 14.381 138.735 14.0774V14.0585V14.0395C138.735 13.7454 138.536 13.4798 138.251 13.4039" fill="#243889"></path></svg> 