<?xml version="1.0" encoding="UTF-8"?>
<svg id="Camada_2" data-name="Camada 2" xmlns="http://www.w3.org/2000/svg" xmlns:xlink="http://www.w3.org/1999/xlink" viewBox="0 0 420.72 103.42">
  <defs>
    <style>
      .cls-1 {
        fill: #bd213f;
      }

      .cls-2 {
        fill: #f79420;
      }

      .cls-3 {
        fill: url(#linear-gradient-2);
      }

      .cls-4 {
        fill: url(#linear-gradient);
      }

      .cls-5 {
        fill: #fff;
      }
    </style>
    <linearGradient id="linear-gradient" x1="3638.83" y1="2688.94" x2="3639.2" y2="2689.06" gradientTransform="translate(-492691.58 295477.59) scale(135.45 -109.86)" gradientUnits="userSpaceOnUse">
      <stop offset="0" stop-color="#f37521"/>
      <stop offset="1" stop-color="#be1f40"/>
    </linearGradient>
    <linearGradient id="linear-gradient-2" x1="3640.89" y1="2684.06" x2="3641.37" y2="2684.58" gradientTransform="translate(-533925.3 393550.63) scale(146.69 -146.6)" gradientUnits="userSpaceOnUse">
      <stop offset="0" stop-color="#f37521"/>
      <stop offset=".25" stop-color="#f37521"/>
      <stop offset="1" stop-color="#fcb813"/>
    </linearGradient>
  </defs>
  <g id="Camada_1-2" data-name="Camada 1">
    <g>
      <g id="Group_3764" data-name="Group 3764">
        <path id="Path_4191" data-name="Path 4191" class="cls-5" d="M289.63,36.05c.28.24.59.45.92.6.37.17.76.3,1.16.4.52.13,1.06.19,1.6.18,1.19,0,2.06-.21,2.6-.62.52-.37.83-.98.82-1.63,0-.3-.06-.6-.2-.87-.15-.27-.37-.5-.62-.67-.34-.23-.7-.42-1.08-.55-.44-.17-.97-.34-1.59-.51-.67-.2-1.27-.41-1.79-.61-.47-.18-.91-.41-1.32-.7-.34-.24-.61-.55-.81-.91-.2-.38-.29-.8-.28-1.23-.04-.94.41-1.83,1.2-2.36.96-.6,2.07-.89,3.2-.83.63,0,1.25.05,1.87.17.45.09.88.22,1.31.39.36.14.7.33,1,.56l-.62.95c-.28-.19-.59-.35-.9-.48-.36-.14-.74-.25-1.11-.34-.5-.11-1.02-.17-1.54-.16-.43,0-.85.04-1.27.13-.36.07-.71.21-1.02.4-.27.17-.51.39-.68.66-.17.27-.26.59-.25.91,0,.58.32,1.11.83,1.37.84.44,1.74.77,2.66.99.64.17,1.27.39,1.88.64.47.19.91.46,1.3.78.32.27.58.6.77.98.17.4.26.83.25,1.26,0,.46-.08.91-.26,1.34-.18.42-.47.78-.82,1.07-.42.33-.9.56-1.42.7-.67.18-1.37.27-2.06.25-.65.01-1.3-.06-1.93-.21-.46-.11-.91-.27-1.34-.47-.39-.18-.75-.41-1.07-.7l.64-.89Z"/>
        <rect id="Rectangle_2166" data-name="Rectangle 2166" class="cls-5" x="302.75" y="25.99" width="1.14" height="12.05"/>
        <path id="Path_4192" data-name="Path 4192" class="cls-5" d="M320.21,28.55l-4.5,4.98h-.36l-4.47-4.92v9.44h-1.15v-12.05h.36l5.46,6.02,5.48-6.02h.3v12.05h-1.13v-9.5Z"/>
        <path id="Path_4193" data-name="Path 4193" class="cls-5" d="M334.99,32.64h-6.66v4.34h7.57v1.06h-8.72v-12.04h8.72v1.07h-7.57v4.52h6.66v1.06Z"/>
        <rect id="Rectangle_2167" data-name="Rectangle 2167" class="cls-5" x="340.61" y="25.99" width="1.14" height="12.05"/>
        <path id="Path_4194" data-name="Path 4194" class="cls-5" d="M295.17,60.02c-.88.01-1.75-.15-2.57-.48-.74-.3-1.4-.76-1.95-1.34-.54-.58-.97-1.26-1.25-2-.3-.79-.45-1.63-.44-2.47,0-.85.14-1.7.44-2.5.28-.74.7-1.42,1.25-2,.55-.57,1.21-1.02,1.95-1.33,1.65-.64,3.47-.64,5.12,0,.74.3,1.4.75,1.96,1.33.55.57.97,1.25,1.25,2,.29.8.44,1.65.43,2.5,0,.84-.14,1.68-.43,2.47-.27.74-.7,1.42-1.25,2-.55.58-1.22,1.04-1.96,1.34-.81.33-1.67.49-2.55.48M295.17,58.94c.72,0,1.44-.13,2.11-.41.6-.26,1.14-.64,1.58-1.12.43-.48.77-1.05.99-1.66.24-.64.36-1.32.35-2.01,0-.69-.12-1.37-.35-2.02-.22-.61-.56-1.18-.99-1.67-.44-.48-.98-.87-1.58-1.12-.67-.28-1.39-.42-2.11-.41-.73-.01-1.45.13-2.12.41-.6.26-1.14.64-1.59,1.12-.44.48-.78,1.05-.99,1.67-.23.65-.35,1.33-.34,2.02,0,.68.11,1.36.34,2.01.22.61.56,1.18.99,1.66.44.48.98.86,1.59,1.12.67.28,1.39.43,2.12.41"/>
        <path id="Path_4195" data-name="Path 4195" class="cls-5" d="M306.43,59.74v-12.05h1.14v10.99h7.19v1.06h-8.33Z"/>
        <rect id="Rectangle_2168" data-name="Rectangle 2168" class="cls-5" x="319.14" y="47.69" width="1.14" height="12.05"/>
        <path id="Path_4196" data-name="Path 4196" class="cls-5" d="M332.53,53.38l2.77-5.68h1.26l-5.84,12.04h-.28l-5.84-12.04h1.26l2.81,5.68,1.85,4.16h.14l1.87-4.16Z"/>
        <path id="Path_4197" data-name="Path 4197" class="cls-5" d="M348.7,54.34h-6.66v4.34h7.57v1.06h-8.72v-12.04h8.72v1.07h-7.57v4.52h6.66v1.06Z"/>
        <path id="Path_4198" data-name="Path 4198" class="cls-5" d="M354.32,47.69h4.8c1.25-.08,2.5.28,3.52,1,.86.74,1.33,1.84,1.25,2.97.05.9-.25,1.78-.82,2.48-.57.64-1.32,1.08-2.16,1.27v.08l3.25,3.96v.28h-1.22l-3.4-4.09h-4.09v4.09h-1.15v-12.05ZM362.73,51.71c.07-.87-.31-1.71-.99-2.24-.78-.51-1.69-.76-2.62-.71h-3.65v5.82h3.86c.46,0,.91-.05,1.35-.17.39-.1.76-.28,1.08-.52.3-.24.55-.54.71-.89.18-.4.27-.84.26-1.29"/>
        <rect id="Rectangle_2169" data-name="Rectangle 2169" class="cls-5" x="369.14" y="47.69" width="1.14" height="12.05"/>
        <path id="Path_4199" data-name="Path 4199" class="cls-5" d="M381.59,60.02c-.88.01-1.75-.15-2.57-.48-.74-.3-1.4-.76-1.95-1.34-.54-.58-.97-1.26-1.25-2-.3-.79-.45-1.63-.44-2.47,0-.85.14-1.7.44-2.5.28-.74.7-1.42,1.25-2,.55-.57,1.21-1.02,1.95-1.33,1.65-.64,3.47-.64,5.12,0,.74.3,1.4.75,1.96,1.33.55.57.97,1.25,1.25,2,.29.8.44,1.65.43,2.5,0,.84-.14,1.68-.43,2.47-.27.74-.7,1.42-1.25,2-.55.58-1.22,1.03-1.96,1.34-.81.33-1.67.49-2.55.48M381.6,58.93c.72,0,1.44-.13,2.11-.41.6-.26,1.14-.64,1.58-1.12.43-.48.77-1.05.99-1.66.24-.64.36-1.32.35-2.01,0-.69-.12-1.37-.35-2.02-.22-.61-.56-1.18-.99-1.67-.44-.48-.98-.87-1.58-1.12-.67-.28-1.39-.42-2.11-.41-.73-.01-1.45.13-2.12.41-.6.26-1.14.64-1.59,1.12-.44.48-.78,1.05-.99,1.67-.23.65-.35,1.33-.34,2.02,0,.68.11,1.36.34,2.01.22.61.56,1.18.99,1.66.44.48.98.86,1.59,1.12.67.28,1.39.43,2.12.41"/>
        <path id="Path_4200" data-name="Path 4200" class="cls-5" d="M299.75,78.15c.01.52-.1,1.03-.33,1.49-.22.41-.53.77-.92,1.03-.43.28-.9.48-1.4.59-.58.13-1.17.2-1.77.19h-5.48v-12.05h5.18c.6,0,1.19.06,1.78.2.49.12.95.32,1.36.6.37.26.67.61.87,1.02.22.45.32.94.31,1.43.02.61-.16,1.21-.53,1.7-.37.46-.86.79-1.42.97v.1c.64.16,1.22.49,1.69.95.46.48.69,1.13.66,1.79M298.16,72.69c.06-.7-.28-1.37-.87-1.73-.7-.36-1.48-.53-2.26-.5h-4.04v4.38h4.18c.77.01,1.52-.18,2.19-.57.53-.34.84-.94.81-1.58M290.99,75.92v4.46h4.36c.42,0,.84-.04,1.25-.13.36-.08.71-.21,1.03-.4.29-.17.53-.42.69-.71.17-.32.26-.68.25-1.04,0-.33-.07-.65-.24-.93-.16-.26-.38-.49-.64-.66-.29-.19-.62-.33-.96-.41-.39-.09-.79-.15-1.19-.16h-4.56Z"/>
        <rect id="Rectangle_2170" data-name="Rectangle 2170" class="cls-5" x="304.93" y="69.39" width="1.14" height="12.05"/>
        <path id="Path_4201" data-name="Path 4201" class="cls-5" d="M310.52,69.39h9.74v1.07h-4.32v10.98h-1.13v-10.98h-4.3v-1.07Z"/>
        <path id="Path_4202" data-name="Path 4202" class="cls-5" d="M327.59,69.39h.28l5.89,12.04h-1.31l-1.14-2.29h-7.13l-1.14,2.29h-1.29l5.84-12.04ZM327.82,71.72h-.16l-2.81,6.12-.12.22h6.04l-.12-.22-2.83-6.12Z"/>
        <path id="Path_4203" data-name="Path 4203" class="cls-5" d="M338.05,69.39h4.8c1.25-.08,2.5.28,3.52,1,.86.74,1.33,1.84,1.25,2.97.05.9-.25,1.78-.82,2.48-.57.64-1.32,1.08-2.16,1.27v.08l3.26,3.96v.28h-1.23l-3.4-4.09h-4.09v4.09h-1.15v-12.05ZM346.47,73.41c.07-.87-.31-1.71-1-2.24-.78-.51-1.69-.76-2.62-.71h-3.65v5.82h3.86c.46,0,.91-.05,1.35-.17.39-.1.76-.28,1.08-.52.3-.24.55-.54.72-.89.18-.4.27-.84.26-1.29"/>
        <path id="Path_4204" data-name="Path 4204" class="cls-5" d="M294,91.09h.28l5.89,12.04h-1.31l-1.14-2.29h-7.13l-1.14,2.29h-1.29l5.84-12.04ZM294.22,93.42h-.16l-2.81,6.12-.12.22h6.04l-.12-.22-2.83-6.12Z"/>
        <path id="Path_4205" data-name="Path 4205" class="cls-5" d="M314.95,97.11c.01.86-.15,1.72-.47,2.52-.3.72-.76,1.37-1.34,1.9-.6.53-1.29.94-2.05,1.2-.83.28-1.71.42-2.59.41h-4.04v-12.04h4.04c.88,0,1.76.13,2.59.41.76.25,1.45.66,2.05,1.19.58.53,1.03,1.17,1.34,1.9.32.8.48,1.66.47,2.52M305.61,92.16v9.92h2.85c.71,0,1.42-.11,2.1-.34.62-.21,1.19-.54,1.69-.97.48-.43.86-.96,1.12-1.56.55-1.34.55-2.84,0-4.17-.26-.59-.64-1.12-1.12-1.55-.49-.43-1.07-.76-1.69-.98-.68-.23-1.39-.35-2.1-.34h-2.85Z"/>
        <path id="Path_4206" data-name="Path 4206" class="cls-5" d="M325.81,96.77l2.77-5.68h1.26l-5.84,12.04h-.28l-5.84-12.04h1.26l2.81,5.68,1.85,4.16h.14l1.87-4.16Z"/>
        <path id="Path_4207" data-name="Path 4207" class="cls-5" d="M339,103.42c-.88.01-1.75-.15-2.57-.48-.74-.3-1.4-.76-1.95-1.34-.54-.58-.97-1.26-1.25-2-.3-.79-.45-1.63-.44-2.47,0-.85.14-1.7.44-2.5.28-.74.7-1.42,1.25-2,.55-.57,1.21-1.02,1.95-1.33,1.65-.64,3.47-.64,5.12,0,.74.3,1.4.75,1.96,1.33.55.57.97,1.25,1.25,2,.29.8.44,1.65.43,2.5,0,.84-.14,1.68-.43,2.47-.27.74-.7,1.42-1.25,2-.55.58-1.22,1.03-1.96,1.34-.81.33-1.67.49-2.55.48M339,102.33c.72,0,1.44-.13,2.11-.41.6-.26,1.14-.64,1.58-1.12.43-.48.77-1.05.99-1.66.24-.64.36-1.32.35-2.01,0-.69-.12-1.37-.35-2.02-.22-.61-.56-1.18-.99-1.67-.44-.48-.98-.87-1.58-1.12-.67-.28-1.39-.42-2.11-.41-.73-.01-1.45.13-2.12.41-.6.26-1.14.64-1.59,1.12-.44.48-.78,1.05-.99,1.67-.23.65-.35,1.33-.34,2.02,0,.68.11,1.36.34,2.01.22.61.56,1.18.99,1.66.44.48.98.86,1.59,1.12.67.28,1.39.43,2.12.41"/>
        <path id="Path_4208" data-name="Path 4208" class="cls-5" d="M360.1,97.74h-4.78v-1.06h5.92v.74c.01.85-.12,1.69-.38,2.49-.23.7-.61,1.34-1.11,1.89-.49.53-1.09.94-1.76,1.21-.74.29-1.54.43-2.34.42-.88.01-1.76-.15-2.58-.48-.74-.3-1.41-.76-1.96-1.34-.54-.58-.96-1.26-1.23-2-.58-1.61-.58-3.36,0-4.97.56-1.52,1.73-2.73,3.23-3.32,1.46-.55,3.06-.63,4.57-.23.48.13.94.32,1.37.55.4.22.76.49,1.08.8l-.66.86c-.29-.27-.61-.5-.96-.68-.38-.2-.77-.36-1.18-.48-1.25-.35-2.57-.28-3.78.19-.61.26-1.15.64-1.6,1.13-.44.48-.78,1.05-1,1.67-.24.65-.36,1.33-.35,2.02,0,.68.11,1.36.34,2.01.22.61.55,1.17.99,1.66.44.48.98.87,1.58,1.12.68.29,1.4.43,2.14.41.62,0,1.23-.1,1.81-.31.53-.19,1.01-.5,1.4-.9.4-.4.7-.89.9-1.42.22-.59.33-1.22.32-1.85v-.12Z"/>
        <path id="Path_4209" data-name="Path 4209" class="cls-5" d="M370.1,91.09h.28l5.89,12.04h-1.31l-1.14-2.29h-7.13l-1.14,2.29h-1.29l5.84-12.04ZM370.32,93.42h-.16l-2.81,6.12-.12.22h6.04l-.12-.22-2.83-6.12Z"/>
        <path id="Path_4210" data-name="Path 4210" class="cls-5" d="M391.04,97.11c.01.86-.15,1.72-.47,2.52-.3.72-.76,1.37-1.34,1.9-.6.53-1.29.94-2.05,1.2-.83.28-1.71.42-2.59.41h-4.04v-12.04h4.04c.88,0,1.75.13,2.59.41.76.25,1.45.66,2.05,1.19.58.53,1.04,1.17,1.34,1.9.32.8.48,1.66.47,2.52M381.71,92.16v9.92h2.85c.71,0,1.42-.11,2.1-.34.62-.21,1.19-.54,1.69-.97.48-.43.87-.96,1.12-1.56.55-1.34.55-2.84,0-4.17-.26-.59-.64-1.12-1.12-1.55-.49-.43-1.07-.76-1.69-.98-.68-.23-1.39-.35-2.1-.34h-2.85Z"/>
        <path id="Path_4211" data-name="Path 4211" class="cls-5" d="M401.53,103.42c-.88.01-1.75-.15-2.57-.48-.74-.3-1.4-.76-1.95-1.34-.54-.58-.97-1.26-1.25-2-.3-.79-.45-1.63-.44-2.47,0-.85.14-1.7.44-2.5.28-.74.7-1.42,1.24-2,.55-.57,1.21-1.02,1.95-1.33,1.65-.64,3.47-.64,5.12,0,.74.3,1.4.75,1.96,1.33.55.57.97,1.25,1.24,2,.29.8.44,1.65.43,2.5,0,.84-.14,1.68-.43,2.47-.27.74-.7,1.42-1.24,2-.55.58-1.22,1.03-1.96,1.34-.81.33-1.67.49-2.55.48M401.53,102.33c.72,0,1.44-.13,2.11-.41.6-.26,1.14-.64,1.58-1.12.43-.48.77-1.05.99-1.66.24-.64.36-1.32.35-2.01,0-.69-.12-1.37-.35-2.02-.22-.61-.56-1.18-.99-1.67-.44-.48-.98-.87-1.58-1.12-.67-.28-1.39-.42-2.11-.41-.73-.01-1.45.13-2.12.41-.6.26-1.14.64-1.59,1.12-.44.48-.78,1.05-.99,1.67-.23.65-.35,1.33-.34,2.02,0,.68.11,1.36.34,2.01.22.61.56,1.18.99,1.66.44.48.98.86,1.59,1.12.67.28,1.39.43,2.12.41"/>
        <path id="Path_4212" data-name="Path 4212" class="cls-5" d="M412.46,101.15c.28.24.59.45.92.6.37.17.76.3,1.16.4.52.13,1.06.19,1.6.18,1.19,0,2.06-.21,2.6-.62.52-.37.83-.98.82-1.63,0-.3-.06-.6-.2-.87-.15-.27-.37-.5-.62-.67-.34-.23-.7-.42-1.08-.55-.44-.17-.97-.34-1.59-.51-.67-.2-1.27-.41-1.79-.61-.47-.18-.91-.41-1.32-.7-.34-.24-.61-.55-.81-.91-.2-.38-.29-.8-.28-1.23-.04-.94.41-1.83,1.2-2.36.96-.6,2.07-.89,3.2-.83.63,0,1.25.05,1.87.17.45.09.88.22,1.31.39.36.14.7.33,1,.56l-.62.95c-.28-.19-.59-.35-.9-.48-.36-.14-.74-.25-1.11-.34-.5-.11-1.02-.17-1.54-.16-.43,0-.85.04-1.27.13-.36.07-.71.21-1.02.4-.27.17-.51.39-.68.66-.17.27-.26.59-.25.91,0,.58.32,1.11.83,1.37.84.44,1.74.77,2.66.99.64.17,1.27.39,1.88.64.47.19.91.46,1.3.78.32.27.58.6.77.98.17.4.26.83.25,1.26,0,.46-.08.91-.26,1.34-.18.42-.47.78-.82,1.07-.42.33-.9.56-1.42.7-.67.18-1.37.27-2.06.25-.65.01-1.3-.06-1.93-.21-.46-.11-.91-.27-1.34-.47-.39-.18-.75-.41-1.07-.7l.64-.89Z"/>
      </g>
      <g id="Group_3765" data-name="Group 3765">
        <path id="Path_4217" data-name="Path 4217" class="cls-5" d="M1.34,26.48h14.9v2.88H4.58v5.66h10.11v2.75H4.58v8.35H1.34v-19.64Z"/>
        <path id="Path_4218" data-name="Path 4218" class="cls-5" d="M30.47,46.58c-1.46.02-2.92-.25-4.27-.8-1.22-.5-2.33-1.24-3.24-2.2-.89-.94-1.59-2.04-2.05-3.25-.48-1.28-.73-2.63-.72-3.99-.01-1.38.23-2.74.72-4.03.46-1.21,1.16-2.32,2.05-3.26.92-.95,2.02-1.7,3.24-2.19,1.36-.55,2.81-.82,4.27-.8,1.47-.02,2.93.25,4.29.8,2.45,1,4.37,2.97,5.31,5.45.49,1.29.73,2.65.72,4.03,0,1.36-.23,2.72-.72,3.99-.93,2.48-2.86,4.45-5.31,5.45-1.36.55-2.82.83-4.29.8M30.47,43.44c.98.01,1.96-.17,2.87-.54.83-.34,1.58-.85,2.2-1.5.61-.66,1.08-1.42,1.41-2.26.34-.89.52-1.84.51-2.8,0-.97-.16-1.93-.51-2.83-.31-.84-.79-1.62-1.41-2.28-.62-.65-1.37-1.16-2.2-1.51-.91-.38-1.88-.57-2.87-.56-.98-.01-1.95.17-2.85.56-.82.35-1.56.86-2.18,1.51-.62.66-1.1,1.43-1.41,2.28-.34.9-.51,1.86-.51,2.83,0,.96.16,1.91.51,2.8.32.84.8,1.6,1.41,2.26.61.65,1.35,1.16,2.18,1.5.9.37,1.87.56,2.85.54"/>
        <path id="Path_4219" data-name="Path 4219" class="cls-5" d="M64.56,46.12h-.85l-13.58-13.16v13.16h-3.24v-19.64h.85l13.58,12.96v-12.96h3.24v19.64Z"/>
        <path id="Path_4220" data-name="Path 4220" class="cls-5" d="M72.38,41.67c.5.38,1.03.7,1.61.95.59.27,1.2.49,1.83.66.79.2,1.61.3,2.42.29,1.46,0,2.52-.26,3.16-.77.62-.46.98-1.18.97-1.95.03-.74-.34-1.44-.97-1.83-.46-.31-.95-.57-1.47-.75-.62-.24-1.4-.49-2.34-.76-1.02-.28-2.03-.63-3.01-1.03-.76-.31-1.48-.72-2.13-1.23-.54-.42-.97-.96-1.26-1.57-.28-.64-.42-1.33-.41-2.03-.06-1.6.66-3.12,1.93-4.09,1.29-1,3.14-1.5,5.56-1.5,1.1-.02,2.2.09,3.27.31.77.16,1.53.39,2.26.67.62.23,1.19.57,1.7.98l-1.77,2.65c-.45-.32-.93-.58-1.44-.79-.57-.22-1.14-.41-1.73-.55-.75-.18-1.52-.27-2.29-.26-1.01-.05-2.02.17-2.91.64-.66.36-1.07,1.06-1.05,1.82,0,.31.08.61.23.88.2.31.47.56.78.74.46.27.95.5,1.46.67.6.22,1.35.45,2.24.69,1.09.27,2.15.64,3.18,1.1.78.34,1.5.79,2.14,1.34.53.45.95,1.01,1.23,1.63.27.65.4,1.35.39,2.05,0,.8-.15,1.6-.46,2.34-.31.73-.79,1.38-1.39,1.9-.7.58-1.51,1-2.37,1.26-1.12.33-2.27.48-3.44.46-1.15.02-2.29-.11-3.41-.38-.82-.2-1.62-.48-2.39-.83-.68-.33-1.32-.75-1.9-1.25l1.77-2.45Z"/>
        <path id="Path_4221" data-name="Path 4221" class="cls-5" d="M105.14,37.78h-9.89v5.47h11.65v2.88h-14.9v-19.64h14.9v2.88h-11.65v5.67h9.89v2.75Z"/>
        <path id="Path_4222" data-name="Path 4222" class="cls-5" d="M128.39,44.09c-.51.49-1.08.91-1.7,1.24-.68.35-1.4.64-2.14.85-1,.28-2.03.41-3.06.39-1.46.02-2.91-.25-4.26-.81-1.22-.51-2.33-1.25-3.26-2.2-.91-.93-1.62-2.04-2.1-3.26-.98-2.58-.98-5.44,0-8.02.47-1.22,1.19-2.32,2.1-3.26.93-.94,2.03-1.69,3.26-2.19,1.35-.55,2.8-.82,4.26-.8,1.03-.02,2.07.11,3.06.39.74.22,1.46.5,2.14.85.62.33,1.19.74,1.7,1.21l-1.87,2.52c-.44-.37-.91-.68-1.41-.95-.5-.27-1.03-.49-1.57-.65-.65-.2-1.32-.3-2-.29-.99-.01-1.97.18-2.88.56-1.71.7-3.04,2.09-3.69,3.82-.34.9-.51,1.86-.51,2.83,0,.96.16,1.92.51,2.82.32.84.81,1.61,1.44,2.26.64.65,1.4,1.16,2.24,1.51.91.38,1.89.57,2.88.56.71.01,1.41-.08,2.1-.28.54-.16,1.07-.37,1.57-.64.48-.25.92-.57,1.31-.95l1.87,2.49Z"/>
        <path id="Path_4223" data-name="Path 4223" class="cls-5" d="M141.84,26.48h.62l9.95,19.64h-3.7l-1.47-2.98h-10.18l-1.44,2.98h-3.67l9.89-19.64ZM142.27,32.47h-.2l-3.54,7.69-.2.33h7.63l-.2-.33-3.5-7.69Z"/>
        <path id="Path_4224" data-name="Path 4224" class="cls-5" d="M18.14,68.88c.1,1.65-.66,3.24-2.01,4.19-1.34.94-3.13,1.41-5.35,1.41H1.34v-19.64h9.1c2.27,0,4.02.46,5.24,1.37,1.23.93,1.92,2.42,1.83,3.96.07,1.81-1.02,3.46-2.72,4.09v.3c.94.27,1.79.81,2.42,1.55.63.78.95,1.76.91,2.77M14.14,60.49c.05-.82-.32-1.62-1-2.1-.83-.5-1.8-.74-2.77-.69h-5.79v5.54h5.8c.98.06,1.95-.21,2.77-.75.64-.46,1.02-1.21,1-2M4.58,65.83v5.76h6.28c.98.04,1.94-.22,2.77-.75.72-.48,1.14-1.3,1.1-2.16.02-.81-.36-1.58-1.02-2.06-.75-.55-1.66-.82-2.58-.79h-6.55Z"/>
        <path id="Path_4225" data-name="Path 4225" class="cls-5" d="M24.5,54.83h8.51c2.49,0,4.44.57,5.85,1.72s2.11,2.79,2.11,4.93c.06,1.36-.34,2.71-1.11,3.83-.76,1.02-1.79,1.8-2.98,2.26v.2l4.88,6.25v.46h-3.6l-4.81-6.22h-5.6v6.22h-3.24v-19.64ZM37.63,61.61c.08-1.13-.4-2.22-1.28-2.93-1.01-.69-2.22-1.03-3.44-.97h-5.17v7.73h5.37c1.17.06,2.33-.27,3.29-.93.86-.71,1.32-1.79,1.23-2.9"/>
        <path id="Path_4226" data-name="Path 4226" class="cls-5" d="M55.73,54.83h.62l9.95,19.64h-3.7l-1.47-2.98h-10.18l-1.44,2.98h-3.67l9.89-19.64ZM56.16,60.82h-.2l-3.54,7.69-.2.33h7.63l-.2-.33-3.5-7.69Z"/>
        <path id="Path_4227" data-name="Path 4227" class="cls-5" d="M71.9,70.02c.5.38,1.03.7,1.61.95.59.27,1.2.49,1.83.66.79.2,1.61.3,2.42.29,1.46,0,2.52-.26,3.16-.77.62-.46.98-1.18.97-1.95.03-.74-.34-1.44-.97-1.83-.46-.31-.95-.57-1.47-.75-.62-.24-1.4-.49-2.34-.76-1.02-.28-2.03-.63-3.01-1.03-.76-.31-1.48-.72-2.13-1.23-.54-.42-.97-.96-1.26-1.57-.28-.64-.42-1.33-.41-2.03-.06-1.6.66-3.12,1.93-4.09,1.29-1,3.14-1.5,5.56-1.5,1.1-.02,2.2.09,3.27.31.77.16,1.53.39,2.26.67.62.23,1.19.57,1.7.98l-1.77,2.65c-.45-.32-.93-.58-1.44-.79-.57-.22-1.14-.41-1.73-.55-.75-.18-1.52-.27-2.29-.27-1.01-.05-2.02.17-2.91.64-.66.36-1.07,1.06-1.05,1.82,0,.31.08.62.23.89.2.31.47.56.78.74.46.27.95.5,1.46.67.6.22,1.35.45,2.24.69,1.09.27,2.15.64,3.18,1.1.78.34,1.5.79,2.14,1.34.53.45.95,1.01,1.23,1.63.27.65.4,1.35.39,2.05,0,.8-.15,1.6-.46,2.34-.31.73-.79,1.38-1.39,1.9-.7.58-1.51,1-2.37,1.26-1.12.33-2.27.48-3.44.46-1.15.02-2.29-.11-3.41-.38-.82-.2-1.62-.48-2.39-.83-.68-.33-1.32-.75-1.9-1.25l1.77-2.45Z"/>
        <rect id="Rectangle_2174" data-name="Rectangle 2174" class="cls-5" x="91.51" y="54.83" width="3.24" height="19.64"/>
        <path id="Path_4228" data-name="Path 4228" class="cls-5" d="M102.08,74.48v-19.64h3.24v16.76h10.9v2.88h-14.14Z"/>
        <path id="Path_4229" data-name="Path 4229" class="cls-5" d="M1.77,98.38c.5.38,1.03.7,1.61.95.59.27,1.2.49,1.83.66.79.2,1.61.3,2.42.29,1.46,0,2.52-.26,3.16-.77.62-.46.98-1.18.97-1.95.03-.74-.34-1.44-.97-1.83-.46-.31-.95-.57-1.47-.75-.62-.24-1.4-.49-2.34-.76-1.02-.28-2.03-.63-3.01-1.03-.76-.31-1.48-.72-2.13-1.23-.54-.42-.97-.96-1.26-1.57-.28-.64-.42-1.33-.41-2.03-.06-1.6.66-3.12,1.93-4.09,1.29-1,3.14-1.5,5.56-1.5,1.1-.02,2.2.09,3.27.31.77.16,1.53.39,2.26.67.62.23,1.19.57,1.7.98l-1.77,2.65c-.45-.32-.93-.58-1.44-.79-.57-.22-1.14-.41-1.73-.56-.75-.18-1.52-.27-2.29-.26-1.01-.05-2.02.17-2.91.64-.66.36-1.07,1.06-1.05,1.82,0,.31.07.61.23.88.2.31.47.56.78.74.46.27.95.5,1.46.67.6.22,1.35.45,2.24.69,1.09.27,2.15.64,3.18,1.1.78.34,1.5.79,2.14,1.34.53.45.95,1.01,1.23,1.63.27.65.4,1.35.39,2.05,0,.8-.15,1.6-.46,2.34-.31.73-.79,1.38-1.39,1.9-.7.58-1.51,1-2.37,1.26-1.12.33-2.27.48-3.44.46-1.15.02-2.29-.11-3.4-.38-.82-.2-1.62-.48-2.39-.83-.68-.33-1.32-.75-1.9-1.24l1.77-2.45Z"/>
        <path id="Path_4230" data-name="Path 4230" class="cls-5" d="M34.53,94.48h-9.89v5.47h11.66v2.88h-14.9v-19.64h14.9v2.88h-11.66v5.67h9.89v2.75Z"/>
        <path id="Path_4231" data-name="Path 4231" class="cls-5" d="M42.24,83.18h8.51c2.49,0,4.44.57,5.85,1.72,1.41,1.15,2.11,2.79,2.11,4.93.06,1.36-.34,2.71-1.11,3.83-.76,1.02-1.79,1.8-2.98,2.26v.2l4.88,6.25v.46h-3.6l-4.81-6.22h-5.6v6.22h-3.24v-19.64ZM55.37,89.96c.08-1.13-.4-2.22-1.28-2.93-1.01-.69-2.22-1.03-3.44-.97h-5.17v7.72h5.37c1.17.06,2.33-.27,3.29-.93.86-.71,1.32-1.79,1.23-2.9"/>
        <path id="Path_4232" data-name="Path 4232" class="cls-5" d="M65.24,83.18h8.51c2.49,0,4.44.57,5.85,1.72,1.41,1.15,2.11,2.79,2.11,4.93.06,1.36-.34,2.71-1.11,3.83-.76,1.02-1.79,1.8-2.98,2.26v.2l4.88,6.25v.46h-3.6l-4.81-6.22h-5.6v6.22h-3.24v-19.64ZM78.37,89.96c.08-1.13-.4-2.22-1.28-2.93-1.01-.69-2.22-1.03-3.44-.97h-5.17v7.72h5.37c1.17.06,2.33-.27,3.29-.93.86-.71,1.32-1.79,1.23-2.9"/>
        <path id="Path_4233" data-name="Path 4233" class="cls-5" d="M96.47,83.18h.62l9.95,19.64h-3.7l-1.47-2.98h-10.18l-1.44,2.98h-3.67l9.89-19.64ZM99.06,81.88c-.43,0-.86-.07-1.26-.21-.37-.14-.72-.3-1.06-.49-.33-.19-.65-.35-.95-.49-.28-.13-.58-.21-.88-.21-.3-.03-.6.08-.82.28-.18.21-.3.46-.33.74l-.07.46-2.23-.2.1-.95c.06-.73.36-1.43.85-1.98.55-.56,1.31-.86,2.09-.8.43,0,.86.07,1.26.21.37.13.72.3,1.07.49.33.19.63.35.92.49.27.14.58.22.88.21.31.03.61-.07.84-.28.18-.21.29-.47.34-.74l.1-.46,2.26.2-.13.95c-.13.73-.45,1.42-.93,1.98-.53.56-1.28.86-2.05.8M96.9,89.18h-.2l-3.54,7.69-.2.33h7.63l-.2-.33-3.5-7.69Z"/>
        <path id="Path_4234" data-name="Path 4234" class="cls-5" d="M119.9,103.29c-1.46.02-2.92-.25-4.27-.8-1.22-.5-2.33-1.24-3.24-2.2-.89-.94-1.59-2.05-2.05-3.26-.96-2.59-.96-5.43,0-8.02.46-1.21,1.16-2.32,2.05-3.26.92-.95,2.02-1.7,3.24-2.19,2.75-1.07,5.81-1.07,8.56,0,2.45,1,4.37,2.97,5.31,5.45.96,2.59.96,5.43,0,8.02-.93,2.48-2.86,4.45-5.31,5.45-1.36.55-2.82.83-4.29.8M119.9,100.14c.98.01,1.96-.17,2.87-.54.83-.34,1.58-.85,2.2-1.5.61-.66,1.08-1.42,1.41-2.26.34-.89.52-1.84.51-2.8,0-.97-.16-1.93-.51-2.83-.31-.84-.79-1.62-1.41-2.28-.62-.65-1.37-1.16-2.2-1.51-.91-.38-1.88-.57-2.87-.56-.98-.01-1.95.17-2.85.56-.82.35-1.56.86-2.18,1.51-.62.66-1.1,1.43-1.41,2.28-.34.9-.51,1.86-.51,2.83,0,.96.16,1.91.51,2.8.32.84.8,1.6,1.41,2.26.61.65,1.35,1.16,2.18,1.5.9.37,1.87.56,2.85.54"/>
      </g>
      <g>
        <path id="Path_4158" data-name="Path 4158" class="cls-1" d="M251.66,74.87c.08-.18.14-.36.17-.55l-.17.55Z"/>
        <path id="Path_4180" data-name="Path 4180" class="cls-2" d="M251.63,74.95c.08-.18.14-.36.17-.55l-.17.55Z"/>
        <path id="Path_4181" data-name="Path 4181" class="cls-4" d="M267.14,25.96l-18.62,5.83-18.09,57.27h-58.51l-.3,14.31,56.98.05h.05c8.37,0,15.78-5.43,18.28-13.42l20.2-64.05Z"/>
        <path id="Path_4182" data-name="Path 4182" class="cls-3" d="M184.17,28.45c-7.46,2.34-12.54,9.25-12.54,17.07v57.85l14.38-13.86v-46.56l83.82-26.19,5.24-16.74-90.9,28.45Z"/>
      </g>
    </g>
  </g>
</svg>